<svg xmlns="http://www.w3.org/2000/svg" version="1.1" xmlns:xlink="http://www.w3.org/1999/xlink" xmlns:svgjs="http://svgjs.dev/svgjs" width="1500" height="1500" viewBox="0 0 1500 1500"><g transform="matrix(1,0,0,1,-0.323615160350073,-0.3236151603499593)"><svg viewBox="0 0 343 343" data-background-color="#ffffff" preserveAspectRatio="xMidYMid meet" height="1500" width="1500" xmlns="http://www.w3.org/2000/svg" xmlns:xlink="http://www.w3.org/1999/xlink"><g id="tight-bounds" transform="matrix(1,0,0,1,0.0740000000000407,0.07400000000001228)"><svg viewBox="0 0 342.85155851775386 342.85155851775386" height="342.85155851775386" width="342.85155851775386"><g><svg></svg></g><g><svg viewBox="0 0 342.85155851775386 342.85155851775386" height="342.85155851775386" width="342.85155851775386"><g><path d="M0 171.426c0-94.676 76.75-171.426 171.426-171.426 94.676 0 171.426 76.75 171.426 171.426 0 94.676-76.75 171.426-171.426 171.426-94.676 0-171.426-76.75-171.426-171.426zM171.426 338.783c92.429 0 167.357-74.928 167.357-167.357 0-92.429-74.928-167.357-167.357-167.357-92.429 0-167.357 74.928-167.357 167.357 0 92.429 74.928 167.357 167.357 167.357z" data-fill-palette-color="tertiary" fill="#919591" stroke="transparent"></path><ellipse rx="164.56874808852186" ry="164.56874808852186" cx="171.42577925887693" cy="171.42577925887693" fill="#919591" stroke="transparent" stroke-width="0" fill-opacity="1" data-fill-palette-color="tertiary"></ellipse></g><g transform="matrix(1,0,0,1,64.84655864529837,76.42830875849964)"><svg viewBox="0 0 213.1584412271571 189.99494100075458" height="189.99494100075458" width="213.1584412271571"><g><svg viewBox="0 0 213.1584412271571 189.99494100075458" height="189.99494100075458" width="213.1584412271571"><g><svg viewBox="0 0 213.1584412271571 189.99494100075458" height="189.99494100075458" width="213.1584412271571"><g transform="matrix(1,0,0,1,0,114.70348504715213)"><svg viewBox="0 0 213.1584412271571 75.29145595360245" height="75.29145595360245" width="213.1584412271571"><g id="textblocktransform"><svg viewBox="0 0 213.1584412271571 75.29145595360245" height="75.29145595360245" width="213.1584412271571" id="textblock"><g><svg viewBox="0 0 213.1584412271571 45.11552601396821" height="45.11552601396821" width="213.1584412271571"><g transform="matrix(1,0,0,1,0,0)"><svg width="213.1584412271571" viewBox="3.96 -37.94 230.45 48.78" height="45.11552601396821" data-palette-color="#ffffff"><path d="M21.04-30.42L21.04-30.42Q20.8-30.52 20.46-30.76 20.12-31.01 19.48-31.23 18.85-31.45 17.87-31.59 16.89-31.74 15.38-31.64L15.38-31.64 15.38-36.57Q17.53-36.52 19.75-36.11 21.97-35.69 23.34-34.81L23.34-34.81Q23.05-34.18 22.66-33.42 22.27-32.67 21.92-32.01 21.58-31.35 21.34-30.91 21.09-30.47 21.04-30.42ZM4.2-26.51L4.2-26.51Q4.2-28.66 4.93-30.37 5.66-32.08 6.91-33.37 8.15-34.67 9.84-35.42 11.52-36.18 13.38-36.43L13.38-36.43 13.38-31.3Q11.82-30.76 10.79-29.42 9.77-28.08 9.77-26.71L9.77-26.71Q9.77-24.8 10.79-23.63 11.82-22.46 13.38-21.58L13.38-21.58 13.38-16.02Q11.77-16.8 10.16-17.7 8.54-18.6 7.23-19.82 5.91-21.04 5.05-22.66 4.2-24.27 4.2-26.51ZM3.96-2.39L4.98-6.59Q5.66-6.2 6.71-5.83 7.76-5.47 8.89-5.15 10.01-4.83 11.13-4.64 12.26-4.44 13.23-4.44L13.23-4.44 13.38-4.44 13.38 0.2 13.28 0.2Q12.11 0.2 10.86 0.07 9.62-0.05 8.35-0.34 7.08-0.63 5.93-1.15 4.79-1.66 3.96-2.39L3.96-2.39ZM15.38-14.89L15.38-20.61Q16.99-19.87 18.68-19.04 20.36-18.21 21.73-17.02 23.1-15.82 23.97-14.11 24.85-12.4 24.85-9.86L24.85-9.86Q24.85-8.11 24.19-6.45 23.54-4.79 22.34-3.44 21.14-2.1 19.38-1.17 17.63-0.24 15.38 0.05L15.38 0.05 15.38-4.64Q19.38-5.62 19.38-9.96L19.38-9.96Q19.38-11.67 18.26-12.79 17.14-13.92 15.38-14.89L15.38-14.89ZM30.66 0L30.66-37.94 36.57-37.94 36.57 0 30.66 0ZM51.17-24.51L51.17-24.51Q52-23.68 52.46-22.58 52.93-21.48 53.15-20.29 53.37-19.09 53.42-17.87 53.46-16.65 53.46-15.48L53.46-15.48 53.46-0.98 53.46 0 47.51 0 47.51-14.99Q47.51-16.65 47.36-18.16 47.21-19.68 46.68-20.85 46.14-22.02 45.21-22.68 44.28-23.34 42.62-23.34L42.62-23.34Q41.94-23.34 40.79-23.12 39.65-22.9 38.57-22.41L38.57-22.41 38.57-26.17Q39.89-26.86 41.43-27.34 42.97-27.83 44.43-27.83L44.43-27.83Q46.63-27.83 48.14-26.93 49.66-26.03 51.17-24.51ZM73.33-23.1L73.33-27.69Q76.02-27.54 78.22-26.39 80.41-25.24 81.9-23.36 83.39-21.48 84.22-18.99 85.05-16.5 85.05-13.67L85.05-13.67Q85.05-10.84 84.2-8.37 83.34-5.91 81.83-4.08 80.32-2.25 78.12-1.12 75.92 0 73.33 0.2L73.33 0.2 73.33-4.49Q75.78-5.03 77.31-7.57 78.85-10.11 78.85-13.67L78.85-13.67Q78.85-15.48 78.49-17.07 78.12-18.65 77.39-19.92 76.66-21.19 75.63-22.02 74.6-22.85 73.33-23.1L73.33-23.1ZM59.71-13.77L59.71-13.77Q59.71-16.6 60.54-19.04 61.37-21.48 62.91-23.32 64.45-25.15 66.6-26.27 68.75-27.39 71.33-27.64L71.33-27.64 71.33-23.1Q68.89-22.56 67.43-20.02 65.96-17.48 65.96-13.92L65.96-13.92Q65.96-12.11 66.33-10.5 66.69-8.89 67.38-7.62 68.06-6.35 69.06-5.52 70.06-4.69 71.33-4.49L71.33-4.49 71.33 0.2Q68.65 0 66.5-1.15 64.35-2.29 62.84-4.15 61.32-6.01 60.52-8.5 59.71-10.99 59.71-13.77ZM92.72-27.54L98.04-27.54 98.67-24.76 98.67 10.84 92.72 10.84 92.72-27.54ZM116.79-19.19L116.79-19.19Q117.38-16.94 117.38-14.16L117.38-14.16Q117.38-11.38 116.72-8.76 116.06-6.15 114.71-4.15 113.37-2.15 111.35-0.95 109.32 0.24 106.58 0.24L106.58 0.24Q104.88 0.24 103.34-0.15 101.8-0.54 100.68-1.17L100.68-1.17 100.68-6.25Q102.29-4.35 104.63-4.35L104.63-4.35Q106.1-4.35 107.29-5.08 108.49-5.81 109.34-7.06 110.2-8.3 110.69-10.03 111.17-11.77 111.17-13.72L111.17-13.72Q111.17-15.63 110.73-17.33 110.3-19.04 109.49-20.36 108.68-21.68 107.54-22.46 106.39-23.24 104.88-23.24L104.88-23.24Q103.61-23.24 102.56-22.73 101.51-22.22 100.68-21.29L100.68-21.29 100.68-26.46Q101.8-27.1 103.17-27.44 104.53-27.78 106-27.78L106-27.78Q107.61-27.78 109.27-27.34 110.93-26.9 112.37-25.88 113.81-24.85 114.98-23.19 116.15-21.53 116.79-19.19ZM124.4 0L124.4-35.99 130.36-35.99 130.36 0 124.4 0ZM145.4-20.21L145.4-16.21 132.36-16.21 132.36-20.21 145.4-20.21ZM132.36 0L132.36-4.44 146.91-4.44 146.91 0 132.36 0ZM132.36-35.99L146.91-35.99 146.91-31.54 132.36-31.54 132.36-35.99ZM159.41-8.3L159.41-8.3Q159.41-6.1 160.31-5.03 161.22-3.96 162.93-3.76L162.93-3.76 162.93 0.2Q162.73 0.24 162.29 0.24L162.29 0.24Q160.63 0.24 159.09-0.2 157.56-0.63 156.38-1.61 155.21-2.59 154.55-4.2 153.89-5.81 153.89-8.15L153.89-8.15Q153.89-10.4 154.85-12.04 155.8-13.67 157.29-14.72 158.78-15.77 160.68-16.28 162.59-16.8 164.54-16.8L164.54-16.8 166.69-16.8 166.69-13.33 165.61-13.33Q164.64-13.33 163.56-13.13 162.49-12.94 161.56-12.4 160.63-11.87 160.02-10.86 159.41-9.86 159.41-8.3ZM174.6-8.54L174.6-8.15Q174.6-7.76 174.65-7.01 174.69-6.25 174.84-5.47 174.99-4.69 175.3-4.05 175.62-3.42 176.16-3.22L176.16-3.22 174.6 0.05Q173.96 0.05 173.25-0.24 172.55-0.54 171.89-1.07 171.23-1.61 170.76-2.27 170.3-2.93 170.06-3.71L170.06-3.71Q169.57-2.49 168.13-1.54 166.69-0.59 164.93-0.15L164.93-0.15 164.93-3.86Q166.1-4.1 167.05-4.81 168.01-5.52 168.69-6.49L168.69-6.49 168.69-16.8Q168.69-19.19 168.44-20.61 168.2-22.02 167.61-22.68 167.03-23.34 166.17-23.51 165.32-23.68 164.15-23.68L164.15-23.68Q163.07-23.68 162.12-23.41 161.17-23.14 160.36-22.78 159.56-22.41 158.95-21.97 158.34-21.53 158.04-21.29L158.04-21.29 155.85-24.66Q156.34-25.2 157.31-25.76 158.29-26.32 159.56-26.76 160.83-27.2 162.32-27.47 163.81-27.73 165.42-27.73L165.42-27.73Q166.88-27.73 168.27-27.44 169.67-27.15 170.81-26.46 171.96-25.78 172.81-24.63 173.67-23.49 174.01-21.78L174.01-21.78Q174.35-20.07 174.47-18.33 174.6-16.6 174.6-14.89L174.6-14.89 174.6-8.54ZM183.29-19.68L183.29-19.68Q183.29-21.53 183.97-23.02 184.65-24.51 185.87-25.56 187.09-26.61 188.63-27.22 190.17-27.83 191.83-27.98L191.83-27.98 191.83-23.1Q190.56-22.85 189.85-22.07 189.15-21.29 189.15-19.87L189.15-19.87Q189.15-18.7 189.9-17.99 190.66-17.29 191.83-16.75L191.83-16.75 191.83-11.52Q191-11.77 190.15-12.08 189.29-12.4 188.46-12.79L188.46-12.79Q185.87-14.16 184.58-15.67 183.29-17.19 183.29-19.68ZM201.5-25.78L199.59-21.73Q198.28-22.41 196.79-22.75 195.3-23.1 193.83-23.19L193.83-23.19 193.83-28.03Q196.03-27.93 197.89-27.42 199.74-26.9 201.5-25.78L201.5-25.78ZM183.38-2.2L185.87-6.15Q186.85-5.47 188.19-4.88 189.54-4.3 191.59-4.3L191.59-4.3 191.83-4.3 191.83 0.24Q190.61 0.24 189.58 0.17 188.56 0.1 187.56-0.17 186.56-0.44 185.53-0.93 184.51-1.42 183.38-2.2L183.38-2.2ZM193.83-10.79L193.83-15.97Q195.3-15.48 196.81-14.89 198.32-14.31 199.57-13.43 200.82-12.55 201.62-11.25 202.43-9.96 202.43-8.01L202.43-8.01Q202.43-6.1 201.74-4.69 201.06-3.27 199.91-2.25 198.76-1.22 197.2-0.63 195.64-0.05 193.83 0.15L193.83 0.15 193.83-4.49Q195.49-4.79 196.4-5.54 197.3-6.3 197.3-7.57L197.3-7.57Q197.3-8.84 196.3-9.55 195.3-10.25 193.83-10.79L193.83-10.79ZM222.88-23.19L222.88-27.78Q225.52-27.54 227.64-26.37 229.77-25.2 231.28-23.34 232.8-21.48 233.6-19.09 234.41-16.7 234.41-14.11L234.41-14.11Q234.41-12.94 234.26-11.77L234.26-11.77 217.51-11.77 217.51-16.06 228.79-16.06Q228.79-17.33 228.38-18.51 227.96-19.68 227.16-20.68 226.35-21.68 225.28-22.36 224.2-23.05 222.88-23.19L222.88-23.19ZM222.69-4.59L222.69-4.59Q223.22-4.59 224.03-4.71 224.84-4.83 225.74-5.15 226.64-5.47 227.55-5.96 228.45-6.45 229.13-7.13L229.13-7.13 231.28-3.86Q229.67-1.86 227.52-0.83 225.37 0.2 222.05 0.2L222.05 0.2Q219.37 0.2 217.02-0.9 214.68-2 213.02-3.91 211.36-5.81 210.38-8.35 209.41-10.89 209.41-13.82L209.41-13.82Q209.41-16.6 210.31-19.09 211.21-21.58 212.78-23.46 214.34-25.34 216.41-26.51 218.49-27.69 220.88-27.83L220.88-27.83 220.88-23.14Q219.07-22.8 217.9-21.68 216.73-20.56 216.07-19.12 215.41-17.68 215.14-16.16 214.88-14.65 214.88-13.57L214.88-13.57Q214.88-11.67 215.34-10.03 215.8-8.4 216.78-7.2 217.76-6.01 219.2-5.3 220.64-4.59 222.69-4.59Z" opacity="1" transform="matrix(1,0,0,1,0,0)" fill="#ffffff" class="wordmark-text-0" data-fill-palette-color="quaternary" id="text-0"></path></svg></g></svg></g><g transform="matrix(1,0,0,1,0,55.76621893324177)"><svg viewBox="0 0 213.1584412271571 19.525237020360684" height="19.525237020360684" width="213.1584412271571"><g transform="matrix(1,0,0,1,0,0)"><svg width="213.1584412271571" viewBox="2.73 -39.06 546.3299999999999 50.050000000000004" height="19.525237020360684" data-palette-color="#ffffff"><path d="M22.05-12.52L22.05-12.52 22.17-21.9Q22.17-31.74 21.44-34.47L21.44-34.47Q21.09-35.79 20.62-36.4 20.14-37.01 19.85-37.35L19.85-37.35 27.86-37.35 27.34-36.67Q26.25-35.06 26.12-33.03 26-31.01 25.94-28.93 25.88-26.86 25.83-24.8L25.83-24.8Q25.78-21.36 25.78-17.11L25.78-17.11 25.78-14.14Q25.78-6.25 23.24-2.83L23.24-2.83Q20.73 0.49 15.04 0.49L15.04 0.49Q4.03 0.49 4.08-13.65L4.08-13.65 4.1-31.93Q4.1-35.79 2.73-37.35L2.73-37.35 11.99-37.35Q10.55-35.62 10.55-32.42L10.55-32.42Q10.55-30.57 10.52-28.61L10.52-28.61 10.42-20.8Q10.4-18.87 10.4-16.82L10.4-16.82Q10.4-9.47 10.84-7.51 11.28-5.54 11.91-4.44L11.91-4.44Q13.38-1.95 16.26-1.95L16.26-1.95Q20.7-1.95 21.73-8.45L21.73-8.45Q22.05-10.38 22.05-12.52ZM38.74-17.58L38.72-11.18Q38.72-3.27 39.67 0L39.67 0 32.47 0Q33.15-2.37 33.32-5.59L33.32-5.59Q33.69-13.38 33.69-17.68 33.69-21.97 33.66-23.45 33.64-24.93 33.62-26.42L33.62-26.42Q33.47-31.71 33.12-33.09 32.76-34.47 32.46-35.1 32.15-35.72 31.76-36.23L31.76-36.23 30.95-37.35 39.87-37.35Q39.18-34.89 39.07-32.63 38.96-30.37 38.9-28.64 38.84-26.9 38.79-25.02L38.79-25.02Q38.74-21.9 38.74-17.58L38.74-17.58ZM52.85-34.42L52.85-34.42Q52.34-32.54 52.34-29.92 52.34-27.29 52.45-26.56 52.56-25.83 52.8-25.39L52.8-25.39Q53.27-24.66 54.61-24.66L54.61-24.66 61.15-24.66Q61.15-23.29 60.49-22.56L60.49-22.56Q59.3-21.24 57.56-21.24L57.56-21.24Q56.71-21.24 56.05-21.48L56.05-21.48Q54.85-21.97 54.19-21.97 53.54-21.97 53.12-21.72 52.7-21.46 52.46-20.97L52.46-20.97Q52.02-20.09 52.02-17.14 52.02-14.18 52.2-11.08 52.39-7.98 53.12-5.9 53.85-3.81 55.34-2.76 56.83-1.71 59.44-1.71L59.44-1.71Q59.44-0.95 58.42 0.1L58.42 0.1Q58.15 0.39 57.95 0.49L57.95 0.49Q53.63 0.49 51.48-0.54L51.48-0.54Q49.02-1.76 47.97-4.88L47.97-4.88Q46.92-8.06 46.92-14.28L46.92-14.28Q46.92-19.73 46.63-20.72 46.33-21.7 46.09-22.02L46.09-22.02Q45.8-22.39 44.67-22.92L44.67-22.92Q46.19-24.07 47.68-27.2L47.68-27.2 48.9-29.76Q50.19-32.69 51.11-33.56 52.02-34.42 52.85-34.42ZM71.44-31.23Q70.94-30.42 70.23-29.87 69.52-29.32 68.62-29.32 67.72-29.32 67.01-29.87 66.3-30.42 65.81-31.23L65.81-31.23Q64.81-32.89 64.81-34.74L64.81-34.74Q64.81-36.99 66.86-37.74L66.86-37.74Q67.6-38.01 68.64-38.01L68.64-38.01Q71.55-38.01 72.26-35.96L72.26-35.96Q72.48-35.38 72.48-34.66 72.48-33.94 72.21-32.98 71.94-32.03 71.44-31.23ZM72.01 0L64.81 0Q65.93-3.86 65.93-13.26L65.93-13.26Q65.93-19.87 64.76-22.36L64.76-22.36Q64.47-23 64.1-23.54L64.1-23.54 63.3-24.66 71.97-24.66Q70.89-20.63 70.89-12.24 70.89-3.86 72.01 0L72.01 0ZM86.1 0L79.09 0Q80.21-3.86 80.21-13.26L80.21-13.26Q80.21-19.95 79.04-22.39L79.04-22.39Q78.75-23 78.38-23.54L78.38-23.54 77.58-24.66 86.05-24.66Q85.68-23.22 85.56-22.36L85.56-22.36 85.39-20.9Q88.22-25.15 92.6-25.15 96.99-25.15 98.28-20.39L98.28-20.39Q100.21-23.68 103.38-24.76L103.38-24.76Q104.51-25.15 105.91-25.15 107.31-25.15 108.45-24.55 109.58-23.95 110.37-22.85L110.37-22.85Q111.9-20.63 111.9-16.77L111.9-16.77 111.9-14.16Q111.9-6.69 112.11-4.8 112.32-2.91 112.42-2.29L112.42-2.29Q112.56-1.22 112.91 0L112.91 0 105.7 0Q106.78-3.69 106.78-13.26L106.78-13.26Q106.78-17.14 106.39-18.47 106-19.8 105.37-20.4 104.75-21 103.68-21L103.68-21Q100.53-21 98.67-17.29L98.67-17.29 98.67-14.16Q98.67-6.69 98.88-4.8 99.09-2.91 99.18-2.29L99.18-2.29Q99.33-1.22 99.67 0L99.67 0 92.47 0Q93.57-3.76 93.57-13.26L93.57-13.26Q93.57-17.24 93.18-18.52 92.79-19.8 92.18-20.4 91.57-21 90.51-21 89.44-21 88.59-20.58 87.73-20.17 87.05-19.48L87.05-19.48Q85.76-18.21 85.02-16.21L85.02-16.21Q84.98-15.5 84.98-14.75L84.98-14.75 84.98-13.26Q84.98-3.86 86.1 0L86.1 0ZM97.77-14.7L97.87-15.14 97.77-14.7ZM137-13.04L137-13.04 136.93-8.35Q136.93-3.98 137.73-2.39L137.73-2.39Q138.22-1.44 138.88-0.93L138.88-0.93 140.03 0 132.95 0 132.19-2.83Q129.43 0.49 124.33 0.49L124.33 0.49Q121.42 0.49 119.64-1.46L119.64-1.46Q118.08-3.22 118.08-5.62 118.08-8.01 119.21-9.79 120.35-11.57 122.2-12.74L122.2-12.74Q125.87-15.01 131.41-15.11L131.41-15.11 131.41-15.38Q131.41-21.31 129.58-22.34L129.58-22.34Q128.92-22.71 127.88-22.71 126.84-22.71 125.82-22.02 124.79-21.34 123.96-20.26L123.96-20.26Q122.3-18.09 121.59-15.14L121.59-15.14Q119.42-16.43 119.42-20.09L119.42-20.09Q119.42-21.58 119.81-23.44L119.81-23.44Q120.74-23.44 121.57-23.71L121.57-23.71 123.45-24.29Q126.21-25.15 128.84-25.15 131.48-25.15 133.06-24.37 134.63-23.58 135.51-22.05L135.51-22.05Q137-19.43 137-13.04ZM123.35-5.13Q123.35-3.61 124.05-2.78 124.74-1.95 125.79-1.95 126.84-1.95 127.82-2.5 128.8-3.05 129.58-4L129.58-4Q131.41-6.18 131.41-9.11L131.41-9.11 131.41-12.72Q127.99-12.4 125.77-10.45L125.77-10.45Q123.35-8.35 123.35-5.13L123.35-5.13ZM150.84-34.42L150.84-34.42Q150.33-32.54 150.33-29.92 150.33-27.29 150.44-26.56 150.55-25.83 150.79-25.39L150.79-25.39Q151.25-24.66 152.6-24.66L152.6-24.66 159.14-24.66Q159.14-23.29 158.48-22.56L158.48-22.56Q157.28-21.24 155.55-21.24L155.55-21.24Q154.7-21.24 154.04-21.48L154.04-21.48Q152.84-21.97 152.18-21.97 151.52-21.97 151.11-21.72 150.69-21.46 150.45-20.97L150.45-20.97Q150.01-20.09 150.01-17.14 150.01-14.18 150.19-11.08 150.38-7.98 151.11-5.9 151.84-3.81 153.33-2.76 154.82-1.71 157.43-1.71L157.43-1.71Q157.43-0.95 156.41 0.1L156.41 0.1Q156.14 0.39 155.94 0.49L155.94 0.49Q151.62 0.49 149.47-0.54L149.47-0.54Q147.01-1.76 145.96-4.88L145.96-4.88Q144.91-8.06 144.91-14.28L144.91-14.28Q144.91-19.73 144.61-20.72 144.32-21.7 144.08-22.02L144.08-22.02Q143.78-22.39 142.66-22.92L142.66-22.92Q144.17-24.07 145.66-27.2L145.66-27.2 146.88-29.76Q148.18-32.69 149.09-33.56 150.01-34.42 150.84-34.42ZM178.79-8.3L178.79-8.3Q179.67-7.71 179.67-6.26 179.67-4.81 179.28-3.71 178.89-2.61 177.91-1.66L177.91-1.66Q175.71 0.49 171.22 0.49L171.22 0.49Q166 0.49 163.26-3.37L163.26-3.37Q160.85-6.81 160.85-12.67L160.85-12.67Q160.85-18.58 164.12-21.95L164.12-21.95Q167.22-25.15 172.52-25.15L172.52-25.15Q176.2-25.15 178.28-23L178.28-23Q179.91-21.29 179.91-19.06 179.91-16.82 179.05-15.03 178.18-13.23 176.5-11.94L176.5-11.94Q173.03-9.25 166.8-9.11L166.8-9.11Q167.32-4.2 169.88-2.54L169.88-2.54Q170.81-1.95 172.35-1.95 173.88-1.95 175.62-3.56 177.35-5.18 178.79-8.3ZM166.66-12.18L166.66-11.43Q174.37-11.94 174.37-18.9L174.37-18.9Q174.37-21.51 172.81-22.41L172.81-22.41Q172.27-22.71 171.39-22.71 170.51-22.71 169.62-22.17 168.73-21.63 168.07-20.41L168.07-20.41Q166.66-17.75 166.66-12.18L166.66-12.18ZM214.97-1.95L214.97-1.95Q219.66-1.95 221.02-13.38L221.02-13.38Q221.49-17.24 221.49-22.46L221.49-22.46Q221.49-35.4 214.92-35.4L214.92-35.4Q208.35-35.4 208.35-22.46L208.35-22.46Q208.35-7.2 212.28-3.2L212.28-3.2Q213.5-1.95 214.97-1.95ZM214.92 0.49L214.92 0.49Q208.42 0.49 205.13-5.62L205.13-5.62Q201.96-11.5 201.96-22.46L201.96-22.46Q201.96-33.86 208.96-36.82L208.96-36.82Q211.43-37.84 214.92-37.84L214.92-37.84Q224.93-37.84 227.15-28.96L227.15-28.96Q227.88-26.1 227.88-21.61 227.88-17.11 227.1-12.85 226.32-8.59 224.71-5.62L224.71-5.62Q221.41 0.49 214.92 0.49ZM240.94 0L233.93 0Q235.06-3.86 235.06-13.26L235.06-13.26Q235.06-19.95 233.89-22.39L233.89-22.39Q233.59-23 233.23-23.54L233.23-23.54 232.42-24.66 240.89-24.66Q240.53-23.44 240.4-22.36L240.4-22.36 240.21-20.61Q243.16-25.15 247.73-25.15L247.73-25.15Q250.68-25.15 252.34-22.85L252.34-22.85Q253.95-20.61 253.95-16.77L253.95-16.77 253.95-14.16Q253.95-7.45 254.08-5.96 254.2-4.47 254.27-3.69 254.35-2.91 254.44-2.29L254.44-2.29Q254.61-1.15 254.96 0L254.96 0 247.8 0Q248.93-3.86 248.93-13.26L248.93-13.26Q248.93-17.02 248.45-18.41 247.97-19.8 247.31-20.4 246.65-21 245.58-21L245.58-21Q243.6-21 241.99-19.43L241.99-19.43Q240.6-18.09 239.87-16.02L239.87-16.02Q239.82-15.36 239.82-14.65L239.82-14.65 239.82-13.26Q239.82-3.86 240.94 0L240.94 0ZM267.92-17.58L267.89-11.18Q267.89-3.27 268.84 0L268.84 0 261.64 0Q262.33-2.37 262.5-5.59L262.5-5.59Q262.86-13.38 262.86-17.68 262.86-21.97 262.84-23.45 262.81-24.93 262.79-26.42L262.79-26.42Q262.64-31.71 262.29-33.09 261.94-34.47 261.63-35.1 261.33-35.72 260.93-36.23L260.93-36.23 260.13-37.35 269.04-37.35Q268.36-34.89 268.25-32.63 268.14-30.37 268.08-28.64 268.01-26.9 267.97-25.02L267.97-25.02Q267.92-21.9 267.92-17.58L267.92-17.58ZM282.57-31.23Q282.07-30.42 281.37-29.87 280.66-29.32 279.76-29.32 278.85-29.32 278.14-29.87 277.44-30.42 276.95-31.23L276.95-31.23Q275.95-32.89 275.95-34.74L275.95-34.74Q275.95-36.99 278-37.74L278-37.74Q278.73-38.01 279.78-38.01L279.78-38.01Q282.68-38.01 283.39-35.96L283.39-35.96Q283.61-35.38 283.61-34.66 283.61-33.94 283.34-32.98 283.08-32.03 282.57-31.23ZM283.15 0L275.95 0Q277.07-3.86 277.07-13.26L277.07-13.26Q277.07-19.87 275.9-22.36L275.9-22.36Q275.6-23 275.24-23.54L275.24-23.54 274.43-24.66 283.1-24.66Q282.03-20.63 282.03-12.24 282.03-3.86 283.15 0L283.15 0ZM296.62 0L289.62 0Q290.74-3.86 290.74-13.26L290.74-13.26Q290.74-19.95 289.57-22.39L289.57-22.39Q289.27-23 288.91-23.54L288.91-23.54 288.1-24.66 296.57-24.66Q296.21-23.44 296.09-22.36L296.09-22.36 295.89-20.61Q298.84-25.15 303.41-25.15L303.41-25.15Q306.36-25.15 308.02-22.85L308.02-22.85Q309.64-20.61 309.64-16.77L309.64-16.77 309.64-14.16Q309.64-7.45 309.76-5.96 309.88-4.47 309.95-3.69 310.03-2.91 310.12-2.29L310.12-2.29Q310.29-1.15 310.64 0L310.64 0 303.48 0Q304.61-3.86 304.61-13.26L304.61-13.26Q304.61-17.02 304.13-18.41 303.65-19.8 302.99-20.4 302.34-21 301.26-21L301.26-21Q299.28-21 297.67-19.43L297.67-19.43Q296.28-18.09 295.55-16.02L295.55-16.02Q295.5-15.36 295.5-14.65L295.5-14.65 295.5-13.26Q295.5-3.86 296.62 0L296.62 0ZM333.9-8.3L333.9-8.3Q334.78-7.71 334.78-6.26 334.78-4.81 334.39-3.71 334-2.61 333.02-1.66L333.02-1.66Q330.82 0.49 326.33 0.49L326.33 0.49Q321.11 0.49 318.37-3.37L318.37-3.37Q315.96-6.81 315.96-12.67L315.96-12.67Q315.96-18.58 319.23-21.95L319.23-21.95Q322.33-25.15 327.63-25.15L327.63-25.15Q331.31-25.15 333.39-23L333.39-23Q335.02-21.29 335.02-19.06 335.02-16.82 334.16-15.03 333.29-13.23 331.61-11.94L331.61-11.94Q328.14-9.25 321.91-9.11L321.91-9.11Q322.43-4.2 324.99-2.54L324.99-2.54Q325.92-1.95 327.46-1.95 328.99-1.95 330.73-3.56 332.46-5.18 333.9-8.3ZM321.77-12.18L321.77-11.43Q329.48-11.94 329.48-18.9L329.48-18.9Q329.48-21.51 327.92-22.41L327.92-22.41Q327.38-22.71 326.5-22.71 325.62-22.71 324.73-22.17 323.84-21.63 323.18-20.41L323.18-20.41Q321.77-17.75 321.77-12.18L321.77-12.18ZM362.34-12.94L362.34-12.94Q362.02-10.4 362.02-8.9 362.02-7.4 362.39-6.13 362.75-4.86 363.44-3.93L363.44-3.93Q364.9-1.95 367.15-1.95L367.15-1.95Q371.44-1.95 371.44-6.69L371.44-6.69Q371.44-10.5 367.03-14.77L367.03-14.77 364.49-17.24Q361.14-20.46 359.92-22.41L359.92-22.41Q357.5-26.27 357.5-30.08L357.5-30.08Q357.5-33.18 359.51-35.28L359.51-35.28Q361.92-37.84 366.46-37.84L366.46-37.84Q368.25-37.84 369.15-37.67L369.15-37.67Q370.83-37.35 371.4-37.35L371.4-37.35Q372.81-37.35 373.59-38.23L373.59-38.23Q373.89-38.55 374.23-39.06L374.23-39.06Q376.01-38.06 376.01-31.71L376.01-31.71Q376.01-27.66 375.2-25.73L375.2-25.73Q374.94-25.07 374.59-24.9L374.59-24.9Q374.2-28.59 372.2-31.49L372.2-31.49Q369.86-34.91 366.78-34.91L366.78-34.91Q364.14-34.91 363.53-32.5L363.53-32.5Q363.36-31.81 363.36-30.8 363.36-29.79 363.97-28.49 364.58-27.2 365.57-25.92 366.56-24.63 367.86-23.34L367.86-23.34Q371.76-19.34 373.04-17.92 374.33-16.5 375.33-14.99L375.33-14.99Q377.52-11.6 377.52-8.42L377.52-8.42Q377.52-4.59 374.54-2.08L374.54-2.08Q371.47 0.49 366.63 0.49L366.63 0.49Q362.63 0.49 359.75-1.51L359.75-1.51Q356.58-3.71 356.58-7.32L356.58-7.32Q357.53-10.72 360.73-12.3L360.73-12.3Q361.58-12.74 362.34-12.94ZM403.35 0L396.15 0Q397.27-3.86 397.27-13.26L397.27-13.26Q397.27-17.19 396.86-18.49 396.44-19.8 395.82-20.4 395.2-21 394.16-21 393.12-21 392.28-20.61 391.44-20.21 390.78-19.58L390.78-19.58Q389.53-18.41 388.75-16.46L388.75-16.46 388.75-11.79Q388.75-4.93 389.02-3.3L389.02-3.3Q389.34-1.15 389.68 0L389.68 0 382.48 0Q383.06-2.05 383.26-5.44L383.26-5.44Q383.7-13.94 383.7-17.96 383.7-21.97 383.67-23.45 383.65-24.93 383.6-26.39L383.6-26.39Q383.48-31.71 383.12-33.07 382.77-34.42 382.46-35.05 382.16-35.67 381.79-36.18L381.79-36.18 380.96-37.33 389.87-37.33Q389.19-34.86 389.08-32.74 388.97-30.62 388.92-29.28 388.87-27.95 388.82-26.49L388.82-26.49Q388.75-23.07 388.75-20.46L388.75-20.46Q390.68-23.71 393.85-24.76L393.85-24.76Q394.98-25.15 396.37-25.15 397.76-25.15 398.9-24.55 400.03-23.95 400.79-22.85L400.79-22.85Q402.35-20.63 402.35-16.77L402.35-16.77 402.35-14.16Q402.35-6.69 402.56-4.8 402.77-2.91 402.84-2.29L402.84-2.29Q403.01-1.22 403.35 0L403.35 0ZM420.34-22.71Q418.14-22.71 417.18-20.51 416.21-18.31 416.21-13.11L416.21-13.11Q416.21-1.95 420.34-1.95L420.34-1.95Q422.54-1.95 423.5-4.93 424.47-7.91 424.47-13.11 424.47-18.31 423.5-20.51 422.54-22.71 420.34-22.71L420.34-22.71ZM410.06-14.04Q410.06-25.15 420.34-25.15 430.62-25.15 430.62-14.04L430.62-14.04Q430.62-7.3 427.79-3.37L427.79-3.37Q425.03 0.49 420.34 0.49 415.65 0.49 412.89-3.37L412.89-3.37Q410.06-7.3 410.06-14.04L410.06-14.04ZM441.85-23.1L441.85-23.1Q444.58-25.15 448.68-25.15L448.68-25.15Q454.49-25.15 456.28-20.34L456.28-20.34Q456.86-18.75 456.86-16.35 456.86-13.94 456.31-11.66 455.76-9.38 454.79-7.54 453.81-5.71 452.48-4.32 451.15-2.93 449.59-2L449.59-2Q446.46-0.12 442.95-0.02L442.95-0.02Q442.99 1.29 443.09 2.56L443.09 2.56 443.34 5.15Q443.56 7.79 444.85 9.62L444.85 9.62 445.68 10.74 436.77 10.74Q437.45 8.4 437.56 6.05 437.67 3.71 437.73 2.04 437.79 0.37 437.82-1.42L437.82-1.42Q437.92-5.57 437.92-8.69L437.92-8.69Q437.92-18.75 437.28-21L437.28-21Q436.89-22.39 436.28-23.22L436.28-23.22 435.26-24.66 441.82-24.66Q441.68-24.17 441.85-23.1ZM450.76-15.7L450.76-15.7Q450.76-22.71 447.22-22.71L447.22-22.71Q445.46-22.71 444.29-21.14L444.29-21.14Q443.02-19.46 443.02-16.53L443.02-16.53 442.85-4.96 442.85-3.61Q442.85-2.95 442.87-2.27L442.87-2.27Q446.41-2.81 448.61-6.52L448.61-6.52Q450.76-10.18 450.76-15.7ZM467.58-23.1L467.58-23.1Q470.31-25.15 474.41-25.15L474.41-25.15Q480.22-25.15 482.01-20.34L482.01-20.34Q482.59-18.75 482.59-16.35 482.59-13.94 482.04-11.66 481.49-9.38 480.52-7.54 479.54-5.71 478.21-4.32 476.88-2.93 475.32-2L475.32-2Q472.19-0.12 468.68-0.02L468.68-0.02Q468.72 1.29 468.82 2.56L468.82 2.56 469.07 5.15Q469.29 7.79 470.58 9.62L470.58 9.62 471.41 10.74 462.5 10.74Q463.18 8.4 463.29 6.05 463.4 3.71 463.46 2.04 463.52 0.37 463.55-1.42L463.55-1.42Q463.65-5.57 463.65-8.69L463.65-8.69Q463.65-18.75 463.01-21L463.01-21Q462.62-22.39 462.01-23.22L462.01-23.22 460.99-24.66 467.55-24.66Q467.41-24.17 467.58-23.1ZM476.49-15.7L476.49-15.7Q476.49-22.71 472.95-22.71L472.95-22.71Q471.19-22.71 470.02-21.14L470.02-21.14Q468.75-19.46 468.75-16.53L468.75-16.53 468.58-4.96 468.58-3.61Q468.58-2.95 468.6-2.27L468.6-2.27Q472.14-2.81 474.34-6.52L474.34-6.52Q476.49-10.18 476.49-15.7ZM495.69-31.23Q495.19-30.42 494.48-29.87 493.77-29.32 492.87-29.32 491.96-29.32 491.26-29.87 490.55-30.42 490.06-31.23L490.06-31.23Q489.06-32.89 489.06-34.74L489.06-34.74Q489.06-36.99 491.11-37.74L491.11-37.74Q491.84-38.01 492.89-38.01L492.89-38.01Q495.8-38.01 496.51-35.96L496.51-35.96Q496.72-35.38 496.72-34.66 496.72-33.94 496.46-32.98 496.19-32.03 495.69-31.23ZM496.26 0L489.06 0Q490.18-3.86 490.18-13.26L490.18-13.26Q490.18-19.87 489.01-22.36L489.01-22.36Q488.72-23 488.35-23.54L488.35-23.54 487.55-24.66 496.21-24.66Q495.14-20.63 495.14-12.24 495.14-3.86 496.26 0L496.26 0ZM509.74 0L502.73 0Q503.85-3.86 503.85-13.26L503.85-13.26Q503.85-19.95 502.68-22.39L502.68-22.39Q502.39-23 502.02-23.54L502.02-23.54 501.21-24.66 509.69-24.66Q509.32-23.44 509.2-22.36L509.2-22.36 509-20.61Q511.96-25.15 516.52-25.15L516.52-25.15Q519.48-25.15 521.14-22.85L521.14-22.85Q522.75-20.61 522.75-16.77L522.75-16.77 522.75-14.16Q522.75-7.45 522.87-5.96 522.99-4.47 523.07-3.69 523.14-2.91 523.24-2.29L523.24-2.29Q523.41-1.15 523.75 0L523.75 0 516.6 0Q517.72-3.86 517.72-13.26L517.72-13.26Q517.72-17.02 517.24-18.41 516.77-19.8 516.11-20.4 515.45-21 514.37-21L514.37-21Q512.4-21 510.78-19.43L510.78-19.43Q509.39-18.09 508.66-16.02L508.66-16.02Q508.61-15.36 508.61-14.65L508.61-14.65 508.61-13.26Q508.61-3.86 509.74 0L509.74 0ZM542.42-0.59L542.42-0.59Q540.05 0.49 537.76 0.49 535.46 0.49 533.95-0.1 532.44-0.68 531.36-1.81L531.36-1.81Q529.12-4.15 529.12-8.28L529.12-8.28Q529.12-16.24 533.68-20.68L533.68-20.68Q537.76-24.66 543.5-24.66L543.5-24.66 549.06-24.66Q548.38-22.29 548.28-20.12 548.18-17.94 548.15-16.56 548.11-15.19 548.09-13.77L548.09-13.77Q548.04-10.94 548.04-7.98 548.04-5.03 547.57-2.26 547.11 0.51 546.34 2.59 545.57 4.66 544.58 6.13 543.59 7.59 542.52 8.59L542.52 8.59Q540.76 10.23 538.44 10.99L538.44 10.99Q537.96 10.79 537.5 10.28 537.05 9.77 536.95 9.28L536.95 9.28Q539.74 8.15 541.37 3.69L541.37 3.69Q542.01 1.95 542.42-0.59ZM542.96-8.15L542.96-8.15 543.03-15.48Q543.03-19.9 542.72-22.17L542.72-22.17Q539.25-21.48 537.25-18.07L537.25-18.07Q535.22-14.58 535.22-9.25L535.22-9.25Q535.22-5.96 535.72-4.59 536.22-3.22 536.92-2.59 537.61-1.95 538.6-1.95 539.59-1.95 540.35-2.34 541.1-2.73 541.69-3.52L541.69-3.52Q542.96-5.2 542.96-8.15Z" opacity="1" transform="matrix(1,0,0,1,0,0)" fill="#ffffff" class="slogan-text-1" data-fill-palette-color="quaternary" id="text-1"></path></svg></g></svg></g></svg></g></svg></g><g transform="matrix(1,0,0,1,46.127037935239066,0)"><svg viewBox="0 0 120.90436535667898 104.05279212787858" height="104.05279212787858" width="120.90436535667898"><g><svg xmlns="http://www.w3.org/2000/svg" xmlns:xlink="http://www.w3.org/1999/xlink" version="1.1" x="0" y="0" viewBox="8 12.987 85.99956435716189 74.013" enable-background="new 0 0 100 100" xml:space="preserve" height="104.05279212787858" width="120.90436535667898" class="icon-icon-0" data-fill-palette-color="quaternary" id="icon-0"><path d="M23.149 49.139C17.74 49.139 13.341 53.539 13.341 58.947S17.74 68.755 23.149 68.755C28.556 68.755 32.956 64.355 32.956 58.947S28.556 49.139 23.149 49.139M23.149 65.646C19.454 65.646 16.448 62.64 16.448 58.946S19.454 52.246 23.149 52.246C26.842 52.246 29.848 55.252 29.848 58.946S26.842 65.646 23.149 65.646" fill="#ffffff" data-fill-palette-color="quaternary"></path><path d="M80.293 25.135A1.56 1.56 0 0 0 78.6 25.47L71.959 32.103A37.3 37.3 0 0 0 61.797 26.43 1.55 1.55 0 0 0 59.803 27.348 1.55 1.55 0 0 0 60.721 29.344 34.2 34.2 0 0 1 69.739 34.317L60.768 43.277A1.56 1.56 0 0 0 60.43 44.969C60.67 45.55 61.237 45.957 61.866 45.957L79.684 46H79.686C80.098 46 80.493 45.809 80.784 45.518S81.239 44.818 81.239 44.406L81.251 26.579A1.57 1.57 0 0 0 80.293 25.135M78.133 42.835L65.617 42.826 78.14 30.319z" fill="#ffffff" data-fill-palette-color="quaternary"></path><path d="M17.585 43.525A1.55 1.55 0 0 0 19.731 43.055 34.4 34.4 0 0 1 34.024 30.508 1.553 1.553 0 0 0 32.697 27.699 37.5 37.5 0 0 0 17.115 41.38 1.55 1.55 0 0 0 17.585 43.525" fill="#ffffff" data-fill-palette-color="quaternary"></path><path d="M49.184 26.381C48.856 26.241 49 26.101 48 25.963V18.859C50 19.41 49.973 20.453 50.01 20.531 50.372 21.302 51.408 21.638 52.186 21.282 52.965 20.925 53.126 20.002 52.767 19.222 52.706 19.088 52 16.303 48 15.584V14.54C48 13.682 47.358 12.987 46.501 12.987S45 13.682 45 14.54V15.537C42 16.076 39.428 18.364 39.428 21.469 39.428 24.287 42 26.31 45 27.908V37.055C43 36.516 41.419 34.815 40.908 34.006 40.45 33.279 39.586 33.063 38.86 33.522S37.776 34.939 38.235 35.665C38.851 36.643 41 39.588 45 40.21V41.532C45 42.39 45.643 43.086 46.501 43.086S48 42.391 48 41.532V40.202C52 39.56 54.241 36.568 54.241 33.659 54.241 31.105 53.962 28.439 49.184 26.381M45 24.321C44 23.281 42.534 22.327 42.534 21.469 42.534 20.097 44 19.102 45 18.71zM48 37.038V29.367C51 30.739 51.012 32.034 51.012 33.659 51.012 34.797 51 36.482 48 37.038" fill="#ffffff" data-fill-palette-color="quaternary"></path><path d="M93.986 47.428A1.55 1.55 0 0 0 92.246 46.089L89.514 46.446A1.56 1.56 0 0 0 88.268 47.421L85.643 54.139 55.631 55.25A1.55 1.55 0 0 0 54.147 56.992L55.801 70.492C55.891 71.222 56.479 71.791 57.211 71.851L79.781 73.749C80.271 74.296 80.963 75.011 81.918 75.998 83.104 77.222 83.25 77.948 83.15 78.186 82.961 78.63 81.861 79.082 80.968 79.082 79.056 79.082 56.73 79.219 56.505 79.221 55.646 79.227 54.954 79.762 54.96 80.619S55.66 82 56.514 82H56.524C56.751 82 79.067 82.025 80.969 82.025 82.52 82.025 85.143 81.363 86.012 79.315 86.5 78.16 86.574 76.296 84.151 73.795 83.087 72.7 82.473 72.059 82.12 71.668L90.829 49.396 92.649 49.164A1.544 1.544 0 0 0 93.986 47.428M79.207 70.584L58.73 68.862 57.435 58.293 84.314 57.297z" fill="#ffffff" data-fill-palette-color="quaternary"></path><circle cx="59.805" cy="84.845" r="1.7" fill="#ffffff" data-fill-palette-color="quaternary"></circle><circle cx="83.668" cy="84.845" r="1.7" fill="#ffffff" data-fill-palette-color="quaternary"></circle><path d="M32.288 70H14.475C10.798 70 8 73.041 8 76.717V85.623C8 86.48 8.504 87 9.362 87H37.4C38.258 87 39 86.48 39 85.623V76.717C39 73.041 35.962 70 32.288 70M36 84H32V78.613C32 77.756 31.358 77.06 30.5 77.06S29 77.756 29 78.613V84H18V78.613C18 77.756 17.357 77.06 16.499 77.06S15 77.755 15 78.613V84H11V76.717C11 74.755 12.512 73 14.475 73H32.288C34.25 73 36 74.755 36 76.717z" fill="#ffffff" data-fill-palette-color="quaternary"></path></svg></g></svg></g><g></g></svg></g></svg></g></svg></g></svg></g><defs></defs></svg><rect width="342.85155851775386" height="342.85155851775386" fill="none" stroke="none" visibility="hidden"></rect></g></svg></g></svg>